<svg version="1.1" xmlns="http://www.w3.org/2000/svg" xmlns:xlink="http://www.w3.org/1999/xlink" x="0px" y="0px" viewBox="0 0 420 420" style="enable-background:new 0 0 420 420;" xml:space="preserve">
<style type="text/css">
  .st0{display:none;}
  .st1{fill:none;stroke:#000000;stroke-width:12;stroke-linecap:round;stroke-linejoin:round;stroke-miterlimit:10;}
</style>
<g id="Layer_1" class="st0">

    <image style="display:inline;overflow:visible;" width="2448" height="2448" xlink:href="IMG_1145.JPG" transform="matrix(2.568232e-09 0.2154 -0.2154 2.568232e-09 473.5889 -53.6309)">
  </image>
</g>
<g id="Layer_2">
  <circle class="st1" cx="208.1" cy="213.2" r="194.8"></circle>
  <g>
    <g>
      <polyline class="st1" points="208.7,60.5 307.7,205.9 208.7,238.9      "></polyline>
      <line class="st1" x1="208.7" y1="60.5" x2="208.7" y2="166.4"></line>
      <line class="st1" x1="208.7" y1="166.4" x2="307.7" y2="205.9"></line>
      <path class="st1" d="M208.7,166.4"></path>
    </g>
    <g>
      <line class="st1" x1="208.7" y1="366" x2="208.7" y2="260.1"></line>
    </g>
    <line class="st1" x1="307.7" y1="227.1" x2="208.7" y2="260.1"></line>
    <line class="st1" x1="208.7" y1="366" x2="307.7" y2="227.1"></line>
    <g>
      <polyline class="st1" points="207.4,60.5 108.4,205.9 207.4,238.9      "></polyline>
      <path class="st1" d="M207.4,166.4"></path>
      <path class="st1" d="M207.4,60.5"></path>
      <line class="st1" x1="207.4" y1="166.4" x2="108.4" y2="205.9"></line>
      <path class="st1" d="M207.4,166.4"></path>
    </g>
    <line class="st1" x1="108.4" y1="227.1" x2="207.4" y2="260.1"></line>
    <line class="st1" x1="207.4" y1="366" x2="108.4" y2="227.1"></line>
  </g>
</g>
</svg>